# xmcd
#
# Track frame offsets:
#	150
#	23208
#	42925
#	64074
#	76807
#	98374
#	120975
#	137655
#	159287
#	180050
#	199830
#
# Disc length: 2905 seconds
#
# Revision: 1
# Processed by: cddbd v1.5.2PL0 Copyright (c) Steve Scherf et al.
# Submitted via: audiograbber 1.83.01
#
DISCID=760b570b
DTITLE=Carl Edmondson And The Driving Winds - Almost Daylight
DYEAR=2004
DGENRE=Country Rock
TTITLE0=Big Heart
TTITLE1=Falling Out Of Love
TTITLE2=Do You Want To Be With Me
TTITLE3=Wasted
TTITLE4=Almost Daylight
TTITLE5=Don't Cry To Me
TTITLE6=Busy Doing Nothing
TTITLE7=Allison's House
TTITLE8=Something Else To Do
TTITLE9=Knock My Socks
TTITLE10=Roll Memory Roll
EXTD=
EXTT0=
EXTT1=
EXTT2=
EXTT3=
EXTT4=
EXTT5=
EXTT6=
EXTT7=
EXTT8=
EXTT9=
EXTT10=
PLAYORDER=
